<svg xmlns="http://www.w3.org/2000/svg" width="355.251" height="349.359" viewBox="0 0 355.251 349.359"><g transform="translate(-2.21 -1.215)"><g transform="translate(14.71 13.715)"><path d="M344.31,121.191C334.016,16.438,277.842,18.331,244.2,15.277c-22.97-2.082-105.756-2.082-128.726,0C81.83,18.331,25.656,16.438,15.362,121.191c-.869,6.367-.869,48.539,0,54.9C25.656,280.85,81.83,278.957,115.477,282.011c1.8.164,3.971.318,6.451.456,26.379,2.151,32.088,7.142,27.136,23.207-9.567,31.011,25.592,46.981,48.293,14.275,18.288-26.347,18.76-34.8,32.9-37.138,5.716-.215,10.5-.482,13.935-.8,33.646-3.055,89.813-1.162,100.107-105.914C345.179,169.73,345.179,127.558,344.31,121.191Z" transform="translate(-14.71 -13.715)" fill="#fff" stroke="#000" stroke-miterlimit="10" stroke-width="25"/><path d="M114.1,120.14c35.42-50.09,78.14-4.87,133.19,6.05,60.6,12.02,100.34-27.63,122.68,23.14,19.88,45.2-31.31,128.84-147.15,112C108.55,244.72,87.3,158.04,114.1,120.14Z" transform="translate(-72.468 -34.539)" stroke="#000" stroke-miterlimit="10" stroke-width="17"/><path d="M194.42,159.2c-45.35-29.94-75.21-1.4-87.25,14.65,12.47,41.03,53.31,78.33,121.75,88.28,38.5,5.6,86.26-5.81,110.41-25.82C300.29,121.59,194.42,159.2,194.42,159.2Z" transform="translate(-63.702 -40.551)" fill="#ed204c"/><g transform="translate(43.468 105.484)"><path d="M194.42,159.2c-45.35-29.94-75.21-1.4-87.25,14.65,13.99,38.51,35.63,75.76,127.95,88.91,46.97,6.69,80.03-12.25,104.21-26.46C279.33,110.14,194.42,159.2,194.42,159.2Z" transform="translate(-107.17 -146.096)" fill="none" stroke="#000" stroke-linejoin="round" stroke-miterlimit="10" stroke-width="17"/><path d="M190.5,156.67c23.88,18.02,38.41,42.12,38.41,42.12" transform="translate(-107.17 -146.096)" fill="none" stroke="#000" stroke-linecap="round" stroke-miterlimit="10" stroke-width="17"/></g></g></g></svg>