<svg xmlns="http://www.w3.org/2000/svg" width="96" height="109.019" viewBox="0 0 96 109.019"><path d="M8.76,1,17.5,99.088l39.2,10.931L96.016,99.048,104.76,1h-96ZM86.609,23.472,83.7,56.149l.009.176-.012.406v0L81.631,79.575l-.228,2.03L56.76,88.421h0l-.019.017-24.6-6.854-1.666-18.89H42.538l.856,9.605,13.369,3.623,0,.007v0l13.419-3.675L71.6,56.612H43.545L43.3,53.968l-.548-6.195-.288-3.326H72.663l1.1-12.165H27.772l-.241-2.642-.547-6.2L26.7,20.117H86.9l-.288,3.356Z" transform="translate(-8.76 -1)" fill="#1572b6"/></svg>