<svg version="1.2" baseProfile="tiny" id="Layer_1" xmlns="http://www.w3.org/2000/svg" x="0px" y="0px" viewBox="0 0 1260.95 723.21" overflow="visible"><title>The Friendly Faces logo</title><defs><mask id="ffLogoBackground"><path fill="#ffffff" d="M736.7,658.8c-29.4,27.2-63.8,37.8-102,35c-38.7-2.8-69.2-21.8-94-52.8c-0.4,6.2-1.5,11-0.9,15.7 c2,16.3-8.6,27.5-23.8,28.9c-4.3,0.4-8.6,0.3-12.9,0.5c-21.2,0.9-42.4,1.9-63.7,2.7c-8.7,0.3-17.8,1.4-25.5-4.2 c-7-5-10.5-12.2-12.1-20.5c-1.3-6.6-2.7-13.2-4-19.8c-0.6-2.9-2.2-4.3-5.2-3.9c-2.9,0.3-5.9,0.2-8.6,1c-1.4,0.4-3.3,2.2-3.5,3.7 c-1.2,8.8-1.8,17.7-3,26.5c-1.7,12.5-11.1,21.5-23.7,22.8c-13.7,1.4-27.5,2.5-41.3,3.7c-12.8,1.2-25.6,2.6-38.5,3.5 c-14.3,1-23.2-7.8-27.6-19.5c-6.3-16.8-12.7-33.5-19.1-50.2c-0.7-1.8-1.8-3.4-2.7-5c-0.6,0.1-1.2,0.2-1.9,0.3c0,2.4-0.2,4.8,0,7.2 c2,16.1,5,32.2,5.8,48.3c0.6,12.3-5,22.6-19.4,26.3c-10.2,2.6-20.9,3.4-31.3,5c-15.3,2.3-30.6,4.6-45.9,7.1 c-10.4,1.7-20.9-3.1-26.6-12.7c-13.2-22.1-24.6-45.1-34.6-68.8c-5.1-12-6.4-24.6-8.5-37.1c-2.9-17.1-5.1-34.3-7.8-51.4 c-3-19.2-6-38.5-9.1-57.7c-3.2-20.1-6.7-40.2-9.8-60.3c-4.3-27.9-8.3-55.8-12.5-83.7c-3.2-20.8-6.8-41.4-9.7-62.2 c-3.5-25.1-6.4-50.2-9.5-75.4c-0.3-2.9-0.1-5.9,0.5-8.7c1.4-6.7,6.3-10.7,13.1-10.9c27.5-0.5,55-1,82.5-1.5 c7.4-0.1,14.8-0.4,22.2-0.7c4-0.2,5.5-2.6,4.7-6.3c-1.1-5.2-2.5-10.4-3.5-15.7c-1.8-9.1-3.7-18.3-4.9-27.5 c-1.5-12.6-2.4-25.3-3.5-38c-0.8-9.5-1.3-19-1.9-28.5c-0.9-14.1-1.8-28.2-2.5-42.3c-0.2-4.4,0.2-8.9,0.6-13.3 c0.5-6.3,4.4-11.2,10.6-12.2c6.3-1,12.8-1.5,19.3-1.6C165,4,189.1,3.9,213.2,3.8c6.8,0,13.4,0.5,19.6,4.2c1.2,0.7,3.6,0.2,5.1-0.6 c5.4-2.8,11-3.6,17-3.6c17.8-0.2,35.5-1,53.3-0.6c16.4,0.4,32.5,2.9,46.7,12.1c4.2,2.8,8.1,5.9,11.9,8.8c2.2-4.2,3.9-8.6,6.6-12.4 c5.1-7.2,13.1-9.1,21.2-9.3c12.5-0.3,25-0.1,37.4,0.9c4.5,0.3,8.6,3.4,13.1,5c1.5,0.5,4,1,5,0.1c5.7-4.7,12.5-6,19.5-6.1 c26.4-0.2,52.9-0.4,79.3,0.1c5.7,0.1,11.4,2.9,17.2,4.3c1.9,0.4,4,0.5,5.9,0.1c5.9-1.4,11.7-3.8,17.6-4.4c8.3-0.8,16.7-0.2,25-0.2 c16.9,0,24.1,3.4,33.3,16.1c0.7-0.6,1.6-1,1.9-1.7c4.9-10.4,14-14.1,24.5-14.2c12-0.1,24,0.4,35.9,1.7c5,0.6,9.8,3.9,15.2,6.3 c6.3-6.1,15.1-7.5,24.3-7.4c18.2,0.3,36.5,0.1,54.6,1.3c22.4,1.6,43.6,7.6,61.5,22.3c2.8,2.3,5.4,5.1,8.6,8.1 c0.4-2.7,0.8-4.9,1.2-7c3.1-16.7,12.4-22.1,26.8-22.6c12.4-0.5,24.9,0.6,37.4,1.4c7.8,0.5,9.7,2,18.7,10c2.5-2.1,4.7-5.1,7.7-6.3 c4.5-1.9,9.4-3.4,14.1-3.6c14-0.3,28.1-0.2,42.2,0.4c11.2,0.5,21,4.5,26.8,15.2c0.6,1.2,1.6,2.2,2.7,3.7c1.8-2.4,3.4-4.8,5.2-6.9 c6.2-7.3,14.6-10.5,23.8-10.4c17.4,0.2,34.8,1,52.2,1.7c3.2,0.1,6.4,1.1,9.4,2.2c4.2,1.6,7.4,4.8,6.7,9.5c-1.1,7.4-2.2,15.1-5,21.9 c-12.9,31.4-26,62.8-39.7,93.9c-7.7,17.6-16.5,34.7-24.8,52.1c-0.1,0.1-0.2,0.3-0.2,0.4c-0.5,2.5-1.1,4.9-1.6,7.4 c2.6,0,5.4,0.6,7.8-0.1c21.9-6.5,44.2-9.9,67-7.9c36,3.3,68.1,15.7,94.1,41.6c13.2,13.1,14.1,25.8,4.4,41.5 c-11.2,18.4-21.8,37.2-32.6,55.7c-9.2,15.8-18.4,31.6-27.9,47.3c-1.9,3.2-2,5.4,0.4,8.2c15.2,17.7,24,38.4,29,61 c4.4,20,3,39.9-0.4,59.9c-3.9,23.2-10.5,45.5-21.1,66.5c-15.4,30.3-35.1,57.7-56.2,84.2c-8.1,10.1-16.7,19.8-25.6,29.1 c-16.4,17.2-36.6,27.8-59.8,32.4c-25.5,5.1-50.1,1.3-74.1-8.1c-13.6-5.3-26-12.7-37.4-21.6c-2.6-2-4.1-2.6-6.6,0.7 c-6.8,8.9-16.6,10.4-27.1,9.5c-15.8-1.3-31.5-2.7-47.3-3.9c-15.6-1.2-31.2-2.5-46.9-3.5c-13.5-0.9-27-1.4-40.6-2.1 c-5.5-0.3-11.1-0.2-16.5-1.1C744.7,684.4,737.9,676.4,736.7,658.8z"></path></mask><linearGradient id="ffLogoGradient"><stop offset="0%" stop-color="#88009B"><animate attributeName="stop-color" values="#88009B; #44309E; #005FA1; #44309E; #88009B" dur="3s" repeatCount="indefinite"></animate></stop><stop offset="100%" stop-color="#44309E"><animate attributeName="stop-color" values="#44309E; #88009B; #44309E; #005FA1; #44309E" dur="3s" repeatCount="indefinite"></animate></stop><stop offset="100%" stop-color="#005FA1"><animate attributeName="stop-color" values="#005FA1; #44309E; #88009B; #44309E; #005FA1" dur="3s" repeatCount="indefinite"></animate></stop></linearGradient></defs><rect class="ffLogo__background" width="100%" height="100%" mask="url(#ffLogoBackground)"></rect><g><path fill="#ffffff" d="M245.4,606c0.4-6.5,0.8-12.7,1.3-19c6.2-77,13.4-153.9,23.7-230.5c6.2-46.5,13.4-93,19.9-139.4 c0.6-4.2,2.1-5.4,6.4-5.4c41.7,0.1,83.5,0.1,125.2-0.1c3.8,0,5.5,0.8,6.6,4.9c22.2,87.2,44.9,174.4,66.9,261.7 c8.9,35,16.5,70.4,24.7,105.6c0.3,1.3,0.5,2.7,0.9,5.3c-8.1,0-15.8-0.2-23.4,0c-25.5,1-51,2.1-76.4,3.4c-4,0.2-5.5-0.8-6.3-4.9 c-2.9-15.2-6.2-30.2-9.6-45.3c-0.3-1.5-2.2-3.8-3.3-3.7c-17.9,0.6-35.8,1.4-54.1,2.3c-0.7,7.2-1.4,13.9-2,20.6 c-1,10.9-1.9,21.8-2.8,32.8c-0.2,2.4-0.8,3.5-3.5,3.7c-30,2.7-60,5.5-90,8.3C248.4,606.1,247.2,606,245.4,606z M387.2,445.9 c-7.9-41.8-15.5-82.6-23.2-123.3c-0.7,0-1.5,0.1-2.2,0.1c-3.1,41.1-6.1,82.2-9.2,123.2C364.5,445.9,375.3,445.9,387.2,445.9z"></path><path fill="#ffffff" d="M1029,484.9c8.7,6.7,16.8,13.9,25.9,19.6c5.7,3.6,12.8,5.4,19.4,6.9c7.9,1.7,15.4-0.3,19.8-7.8 c4.6-7.9,5.2-16.9-0.5-24c-5.7-7.1-13-13-20.1-18.9c-12.1-10.1-25.7-18.6-36.6-29.7c-23.2-23.7-31.9-53.4-30.5-86.1 c0.8-20.2,3.7-40,12.3-58.6c18.6-40.3,49.9-64.5,93.6-72c38.4-6.6,74.5-0.6,106.7,22.7c4.4,3.2,8.3,6.9,12.2,10.6 c2.1,2,3.9,4.3,6,6.7c-21.3,29.3-42.6,58.5-63.7,87.6c-5-4.6-9.4-9.4-14.4-13.4c-7.6-6.1-16.2-10.2-26.3-10.1 c-13.1,0.2-20.4,7.2-21.2,20.1c-0.4,6.6,2.3,11.8,7.5,15.6c10.5,7.8,21.3,15.4,31.8,23.1c38.1,28,53.3,66,48.3,112.5 c-3.3,30.8-11.7,59.9-29.1,86.1c-30.1,45.3-80.9,61.2-133.1,41.7c-24.4-9.2-44.8-24-62-43.4c-1.8-2-2.3-3.5-0.7-6 c18.1-27.3,36-54.7,54-82.1C1028.6,485.2,1029.1,484.7,1029,484.9z"></path><path fill="#ffffff" d="M884.3,450.4c-0.8,13.4-1.6,26.6-2.4,40.1c29.3,1.8,58,3.5,87.3,5.3c-3.2,35.7-6.2,70.7-9.3,105.8 c-60.3-4.1-120.1-8.2-180.3-12.2c4.1-124.7,8.2-249.8,12.3-375.6c63.6,1.1,127,2.2,191.3,3.4c-2.3,34.3-4.5,67.9-6.7,102.3 c-28.4-0.8-56.4-1.7-84.9-2.5c-0.7,12.8-1.3,25.1-1.9,37.9c25.4,0.9,50.3,1.8,76,2.8c-0.5,7.9-0.9,15.4-1.4,22.9 c-1.6,22-3.1,44.1-4.9,66.1c-0.7,8,1,7.5-7.9,7c-20.4-1-40.7-2.1-61.1-3.2C888.4,450.3,886.6,450.4,884.3,450.4z"></path><path fill="#ffffff" d="M703.2,335.9c-4.3-4.8-8.2-9.6-12.5-13.9c-12.5-12.3-33-12.4-45.8-0.3c-9.2,8.7-14.6,19.6-17.4,31.6 c-7.7,32.5-7.7,64.9,2.9,96.9c3,9,7.7,17.2,14.7,23.9c12.3,11.9,29.4,12.5,42.2,1.1c4.6-4,8.5-8.8,13.1-13.5 c5.9,8.9,11.9,17.9,17.7,26.9c11.8,18.5,23.4,37.1,35.3,55.5c2,3,1.6,4.8-0.5,7.6c-40,55-133.7,66.6-187,2.7 c-23.2-27.8-37-60.1-44.8-95.1c-9.4-41.8-10.8-84-2.7-126.1c7.4-38.5,22.5-73.3,52.6-99.8c25.3-22.3,55.2-32.1,88.7-31.4 c26.1,0.6,50.8,6,73.1,20.5c10.6,6.9,19.9,15.1,27.6,25.2c0.9,1.2,1.5,4,0.7,5c-19,27.6-38.1,55.2-57.2,82.7 C703.7,335.6,703.6,335.7,703.2,335.9z"></path><path fill="#ffffff" d="M234,459.1c-24,1.2-47.3,2.4-71.1,3.6C169,513.4,175,563.5,181,614.1c-11.5,1.6-22.5,3.1-33.4,4.7 c-18.2,2.7-36.4,5.4-54.5,8.4c-3.5,0.6-4.8-0.1-5.4-3.9c-6.1-40.6-12.5-81.2-18.7-121.8c-11-71.3-22-142.6-32.9-213.9 c-3.5-23.2-6.6-46.5-9.8-69.8c-0.2-1.2-0.2-2.4-0.3-3.9c1.5-0.1,2.6-0.3,3.9-0.3c61-0.6,122.1-1.1,183.1-1.7c3.1,0,5,0.2,5.4,4.2 c2.6,32,5.5,64,8.3,96.1c0.1,0.8,0,1.5,0,3.6c-27.1,0-54,0-81.7,0c0.9,8.8,1.7,16.2,2.6,23.7c0.5,4.6,1.4,9.2,1.6,13.8 c0.1,3.6,1.6,4.3,4.9,4.2c21.3-0.6,42.6-0.9,64-1.4c1.8,0,3.7,0,6,0C227.2,390.4,230.6,424.5,234,459.1z"></path><path fill="#ffffff" d="M666.9,22.6c14.5,0,29,0,44.1,0c-0.6,46.1-1.1,91.9-1.7,138.1c-4.7,0-9,0-13.3,0c-9.4,0-18.9-0.4-28.3-0.1 c-4.3,0.1-6.6-1.4-8.6-5c-10.8-19.3-21.9-38.4-32.9-57.5c-0.7-1.2-1.5-2.2-3.2-3.2c0.6,21.5,1.2,42.9,1.8,64.8 c-14.7,0-29.1,0-44.1,0c0-46,0-91.6,0-137.8c4.6,0,9.3,0,14.1,0c9.1,0,18.2,0.3,27.3,0c3.8-0.1,5.7,1.2,7.5,4.5 c11.7,21.1,23.7,42,35.5,62.9c0.4,0.6,0.9,1.2,1.6,2.2C666.9,68.3,666.9,45.6,666.9,22.6z"></path><path fill="#ffffff" d="M735.7,160.7c0-3.5,0-6.7,0-9.9c0.6-41,1.2-81.9,1.7-122.9c0-3.9,0.9-5.4,5.1-5.2c21.5,0.7,43,0.7,64.4,1.7 c12.4,0.6,24.4,3.7,35.5,9.8c17,9.4,27,23.7,29.3,43c2.7,22.8-1.4,43.8-17.7,61.1c-12.9,13.7-29.5,21-47.7,22 C783,161.7,759.7,160.7,735.7,160.7z M782,121.7c7-0.6,14.2-0.6,21.2-2c9.8-1.9,17.5-7.5,19.9-17.8c2.7-11.3,3.2-22.6-6.4-31.4 c-9.8-8.9-21.9-8.5-34.8-8C782,82.2,782,101.4,782,121.7z"></path><path fill="#ffffff" d="M340.8,104c12.3,18.3,24.5,36.5,37,55.2c-1.7,0.2-2.6,0.5-3.6,0.5c-15.1,0.1-30.3,0-45.4,0.2 c-2.8,0-4.5-0.8-5.9-3.3c-8-13.8-16.1-27.4-24.2-41.1c-0.9-1.6-1.9-3.1-2.9-4.6c-0.4,0.1-0.9,0.2-1.3,0.3c0.8,16,1.6,32,2.5,48.4 c-15,0-29.6,0-44.9,0c-2.5-45.2-4.9-90.4-7.4-135.8c1.5-0.3,2.5-0.6,3.5-0.6c20.6-0.2,41.1-0.5,61.7-0.3 c11.8,0.1,23.2,2.2,33.9,8.1c25,13.7,28.4,57-0.3,71.4C342.5,102.8,341.8,103.3,340.8,104z M292.5,80.9c6.3-0.7,12.1-0.8,17.7-2 c4.5-1,7.4-4.4,7.3-9.4c0-4.5-1.7-8.8-6.3-9.6c-6.3-1.2-12.9-1.2-19.8-1.8C291.9,66.2,292.2,73,292.5,80.9z"></path><path fill="#ffffff" d="M561.5,159.6c-32.5,0-64.7,0-97.3,0c-0.2-1.9-0.4-3.6-0.5-5.2c-1-42.3-1.8-84.7-2.9-127 c-0.1-4.5,1.2-5.7,5.6-5.6c28.7,0.2,57.5,0.1,86.2,0c3.9,0,5,1.1,5,5c-0.2,9.7-0.1,19.5,0.2,29.2c0.1,3.5-1,4.5-4.4,4.5 c-15-0.2-30-0.1-45-0.1c-0.6,0-1.2,0.2-2.2,0.3c0,3.6,0,7.2,0,11.4c16,0,31.9,0,48.2,0c0,12.2,0,23.9,0,36.1c-15.7,0-31.5,0-47.4,0 c0,4.5,0,8.4,0,12.9c18.2,0,36.1,0,54.4,0C561.5,134.1,561.5,146.6,561.5,159.6z"></path><path fill="#ffffff" d="M1017.3,165.2c1.1-17.9,2-34.7,3.2-51.4c0.3-4.2-0.4-7.7-2.6-11.4c-14.5-23.9-28.8-48-43.1-72 c-0.7-1.2-1.3-2.4-2.2-4c1.6-0.2,2.8-0.4,3.9-0.4c16.2,0.3,32.5,0.7,48.7,0.9c3.2,0,4.9,0.9,6.4,3.9c5.7,11.8,11.7,23.5,18,36 c1.4-2.1,2.5-3.6,3.5-5.2c6.2-10.2,12.3-20.4,18.6-30.4c0.9-1.4,2.9-3,4.4-3c17,0.2,34,0.6,51,1c0.6,0,1.1,0.2,2.4,0.5 c-3.6,4.5-6.8,8.6-10,12.6c-16.4,21.1-32.9,42.1-49.3,63.3c-1.4,1.8-2.3,4.4-2.5,6.7c-1.3,15.9-2.3,31.8-3.4,47.6 c-0.4,6.1-0.4,6.1-6.3,5.9c-11-0.2-21.9-0.4-32.9-0.6C1022.8,165.2,1020.3,165.2,1017.3,165.2z"></path><path fill="#ffffff" d="M177.9,61.7c0.4,5.5,0.7,9.7,1,14.5c14.2,0,28.1,0,42.5,0c0.8,12.5,1.6,24.6,2.4,37.4c-14.2,0-27.9,0-42.2,0 c1.2,15.9,2.3,31.1,3.5,46.7c-15.2,0-30,0-45.8,0c-3.4-45.1-6.9-90.1-10.4-136c32.3,0,63.6,0,95.6,0c0.6,11.8,1.2,24.2,1.9,37.4 C210.2,61.7,194.4,61.7,177.9,61.7z"></path><path fill="#ffffff" d="M894.9,25.3c15.5,0,30.2,0,44.8,0c3,0,3.2,1.5,3,3.8c-1,22.5-2,45-3,67.6c-0.4,8.6-0.8,17.2-1.3,26.8 c15.4,0,30.5,0,46.4,0c-0.8,14.1-1.6,27.2-2.4,41c-31.1-0.5-61.7-1.1-92.8-1.6C891.4,116.6,893.2,70.8,894.9,25.3z"></path><path fill="#ffffff" d="M387.1,22.3c15.8,0,31.2,0,47.1,0c1.2,45.7,2.4,91.3,3.6,137.5c-5.5,0-10.6,0-15.6,0c-9,0-17.9-0.1-26.9,0.1 c-3.2,0.1-4.2-0.9-4.3-4.2c-1.2-40-2.6-79.9-3.9-119.9C387,31.5,387.1,27.2,387.1,22.3z"></path></g></svg>