<svg xmlns="http://www.w3.org/2000/svg" width="60" height="60" viewBox="0 0 60 60"><path d="M0,0H60V60H0Z" fill="rgba(0,0,0,0)"/><path d="M30,2A28.223,28.223,0,0,0,2,30.456a28.4,28.4,0,0,0,19.146,27c1.4.248,1.924-.606,1.924-1.354,0-.674-.036-2.914-.036-5.3C16,52.119,14.18,49.06,13.62,47.458c-.316-.82-1.68-3.344-2.87-4.021-.98-.532-2.38-1.85-.036-1.884,2.206-.037,3.78,2.063,4.306,2.917,2.52,4.3,6.546,3.093,8.154,2.348a6.018,6.018,0,0,1,1.786-3.8c-6.23-.711-12.74-3.167-12.74-14.051a11.175,11.175,0,0,1,2.87-7.649,10.38,10.38,0,0,1,.28-7.541s2.344-.746,7.7,2.92a25.991,25.991,0,0,1,14,0c5.354-3.7,7.7-2.914,7.7-2.914a10.38,10.38,0,0,1,.28,7.541,11.113,11.113,0,0,1,2.87,7.646c0,10.921-6.544,13.34-12.774,14.051,1.014.888,1.89,2.6,1.89,5.264,0,3.8-.036,6.864-.036,7.825,0,.746.526,1.633,1.926,1.349A28.468,28.468,0,0,0,58,30.456,28.223,28.223,0,0,0,30,2Z" transform="translate(0)"/></svg>