<svg xmlns="http://www.w3.org/2000/svg" width="60" height="60" viewBox="0 0 60 60"><path d="M0,0H60V60H0Z" fill="rgba(0,0,0,0)"/><path d="M49,49.017H41.01V36.486c0-2.988-.06-6.834-4.17-6.834-4.167,0-4.8,3.252-4.8,6.615v12.75h-8V23.25h7.68v3.51h.1A8.435,8.435,0,0,1,39.408,22.6c8.1,0,9.6,5.334,9.6,12.273V49.017Zm-34-29.292a4.644,4.644,0,1,1,4.644-4.641,4.638,4.638,0,0,1-4.644,4.641Zm4.008,29.292H11V23.25H19.02V49.017ZM53.01,3H6.987A3.935,3.935,0,0,0,3,6.891V53.109A3.936,3.936,0,0,0,6.984,57H53a3.952,3.952,0,0,0,4-3.891V6.891A3.952,3.952,0,0,0,53,3h.009Z"/></svg>