<?xml version="1.0" standalone="no"?>
<!DOCTYPE svg PUBLIC "-//W3C//DTD SVG 20010904//EN"
 "http://www.w3.org/TR/2001/REC-SVG-20010904/DTD/svg10.dtd">
<svg version="1.0" xmlns="http://www.w3.org/2000/svg"
 width="510.000000pt" height="510.000000pt" viewBox="0 0 510.000000 510.000000"
 preserveAspectRatio="xMidYMid meet">
<metadata>
Created by potrace 1.14, written by Peter Selinger 2001-2017
</metadata>
<g transform="translate(0.000000,510.000000) scale(0.100000,-0.100000)"
fill="#000000" stroke="none">
<path d="M1247 4514 c-1 -1 -20 -4 -42 -7 -327 -46 -602 -260 -679 -527 -30
-106 -38 -215 -23 -315 6 -41 43 -159 57 -184 5 -10 -14 -47 -60 -115 -230
-342 -372 -705 -417 -1066 -9 -73 -9 -361 0 -429 7 -45 27 -148 42 -211 21
-86 105 -283 152 -355 68 -104 90 -135 142 -195 225 -260 615 -484 1036 -595
69 -19 58 -16 225 -50 14 -3 43 -8 65 -11 22 -3 65 -9 95 -14 30 -5 84 -12
120 -16 36 -3 79 -8 95 -10 160 -17 626 -23 830 -9 66 4 145 9 175 11 30 1 55
4 55 4 0 1 11 3 25 5 65 7 138 16 165 22 16 3 43 7 60 9 134 13 489 114 629
178 193 89 399 210 498 293 71 59 216 211 266 278 114 154 223 418 248 600 2
17 8 59 13 95 9 62 7 357 -3 410 -3 14 -7 45 -11 70 -25 193 -121 476 -235
695 -77 148 -77 147 -145 250 -102 154 -95 139 -80 169 46 89 70 269 52 394
-12 83 -62 203 -120 287 -31 46 -137 148 -188 183 -293 197 -697 208 -1008 25
-89 -52 -203 -162 -262 -252 l-50 -76 -424 -1 c-234 0 -425 4 -425 8 0 19 -69
116 -125 176 -125 135 -301 228 -493 262 -52 9 -248 20 -255 14z"/>
</g>
</svg>
