<svg xmlns="http://www.w3.org/2000/svg" xmlns:xlink="http://www.w3.org/1999/xlink" preserveAspectRatio="none" viewBox="0 0 1440 320"><defs><linearGradient id="a" x2="1" y2="1" gradientUnits="objectBoundingBox"><stop offset="0" stop-color="#c5f9d7"/><stop offset="0.424" stop-color="#f7d486"/><stop offset="1" stop-color="#f27a7d"/></linearGradient></defs><path d="M0,288L40,266.7C80,245,160,203,240,160C320,117,400,75,480,96C560,117,640,203,720,234.7C800,267,880,245,960,218.7C1040,192,1120,160,1200,170.7C1280,181,1360,235,1400,261.3L1440,288L1440,0L1400,0C1360,0,1280,0,1200,0C1120,0,1040,0,960,0C880,0,800,0,720,0C640,0,560,0,480,0C400,0,320,0,240,0C160,0,80,0,40,0L0,0Z" fill="url(#a)"/></svg>