<svg xmlns="http://www.w3.org/2000/svg" xmlns:xlink="http://www.w3.org/1999/xlink" preserveAspectRatio="none" viewBox="0 0 1440 320"><defs><linearGradient id="b" x2="1" y2="1" gradientUnits="objectBoundingBox"><stop offset="0" stop-color="#f27a7d"/><stop offset="0.424" stop-color="#f7d486"/><stop offset="1" stop-color="#c5f9d7"/></linearGradient></defs><path d="M0,32L40,37.3C80,43,160,53,240,85.3C320,117,400,171,480,181.3C560,192,640,160,720,149.3C800,139,880,149,960,176C1040,203,1120,245,1200,250.7C1280,256,1360,224,1400,208L1440,192L1440,320L1400,320C1360,320,1280,320,1200,320C1120,320,1040,320,960,320C880,320,800,320,720,320C640,320,560,320,480,320C400,320,320,320,240,320C160,320,80,320,40,320L0,320Z" fill="url(#b)"/></svg>