<svg xmlns="http://www.w3.org/2000/svg" xmlns:xlink="http://www.w3.org/1999/xlink" width="96" height="57.6" viewBox="0 0 96 57.6"><defs><clipPath id="a"><path d="M0,0H96V57.6H0Z" fill="#fff"/></clipPath></defs><g clip-path="url(#a)"><path d="M48,0Q28.8,0,24,19.2,31.2,9.6,40.8,12c3.652.912,6.261,3.563,9.15,6.494C54.656,23.271,60.1,28.8,72,28.8q19.2,0,24-19.2-7.2,9.6-16.8,7.2c-3.652-.912-6.261-3.563-9.15-6.494C65.344,5.529,59.9,0,48,0ZM24,28.8Q4.8,28.8,0,48q7.2-9.6,16.8-7.2c3.652.914,6.261,3.563,9.15,6.494C30.656,52.071,36.1,57.6,48,57.6q19.2,0,24-19.2Q64.8,48,55.2,45.6c-3.652-.912-6.261-3.563-9.15-6.494C41.344,34.329,35.9,28.8,24,28.8Z" fill="#06b6d4" fill-rule="evenodd"/></g></svg>