<svg xmlns="http://www.w3.org/2000/svg" width="60" height="60" viewBox="0 0 60 60"><path d="M0,0H60V60H0Z" fill="rgba(0,0,0,0)"/><path d="M58.16,9.93a20.923,20.923,0,0,1-6.644,2.087,13.15,13.15,0,0,0,5.09-7.34A21.418,21.418,0,0,1,49.259,7.9c-3.58-4.392-9.288-5.475-13.91-2.638s-7,8.884-5.8,14.736C20.245,19.46,11.579,14.422,5.7,6.133A14.74,14.74,0,0,0,4.138,12.8,13.869,13.869,0,0,0,9.283,23.846a10.429,10.429,0,0,1-5.239-1.659v.165c0,6.313,3.88,11.754,9.278,13.008a10.2,10.2,0,0,1-5.226.229C9.61,41,13.954,44.7,18.9,44.8A21.146,21.146,0,0,1,1.779,50.3,29.757,29.757,0,0,0,19.51,56.262c21.28,0,32.916-20.216,32.916-37.748,0-.571-.014-1.148-.036-1.713a25.7,25.7,0,0,0,5.773-6.868Z" transform="translate(0 0)"/></svg>