<?xml version="1.0" standalone="no"?>
<!DOCTYPE svg PUBLIC "-//W3C//DTD SVG 20010904//EN"
 "http://www.w3.org/TR/2001/REC-SVG-20010904/DTD/svg10.dtd">
<svg version="1.0" xmlns="http://www.w3.org/2000/svg"
 width="260.000000pt" height="260.000000pt" viewBox="0 0 260.000000 260.000000"
 preserveAspectRatio="xMidYMid meet">
<metadata>
Created by potrace 1.11, written by Peter Selinger 2001-2013
</metadata>
<g transform="translate(0.000000,260.000000) scale(0.100000,-0.100000)"
fill="#000000" stroke="none">
<path d="M758 2189 c-35 -9 -93 -31 -128 -50 -70 -37 -178 -137 -228 -211 -40
-58 -118 -215 -128 -254 -4 -16 -9 -33 -13 -39 -3 -5 -7 -14 -8 -20 -50 -209
-58 -261 -57 -390 0 -114 11 -185 44 -290 59 -192 167 -338 295 -400 46 -23
74 -29 140 -32 103 -3 162 13 245 69 119 79 228 249 280 434 21 77 24 82 53
88 89 18 162 144 134 231 -19 58 -148 98 -314 98 -181 0 -299 -38 -357 -116
-27 -37 -25 -106 4 -147 24 -33 87 -70 121 -70 18 0 20 -4 15 -27 -9 -36 -54
-101 -87 -126 -37 -27 -129 -29 -157 -4 -28 26 -58 93 -66 149 -12 78 -8 237
8 323 42 230 116 383 209 431 44 23 94 25 120 4 20 -17 22 -27 23 -137 1 -165
25 -202 133 -208 85 -5 133 31 166 126 22 59 30 222 16 289 -47 218 -241 335
-463 279z"/>
<path d="M1444 2171 c-18 -11 -41 -40 -54 -67 -20 -41 -24 -65 -25 -168 -2
-141 10 -238 55 -436 12 -52 23 -103 25 -112 40 -195 138 -478 217 -631 107
-205 211 -240 327 -110 80 90 134 212 234 528 14 44 49 148 77 230 108 314
145 476 137 601 -5 93 -24 137 -68 160 -130 67 -271 -167 -441 -725 -24 -77
-46 -141 -49 -141 -10 0 -35 88 -94 334 -74 306 -113 418 -175 502 -41 55
-109 69 -166 35z"/>
</g>
</svg>
